<svg width="338" height="214" viewBox="0 0 338 214" fill="none" xmlns="http://www.w3.org/2000/svg">
<path d="M204.329 165.001L213.461 155.869C220.637 148.693 220.405 140.009 212.814 132.419L212.781 132.385C205.207 124.812 196.705 124.795 189.546 131.955L180.414 141.086L204.329 165.001ZM205.191 155.853L189.546 140.208L193.076 136.678C197.468 132.286 202.705 132.518 207.693 137.506L207.726 137.54C212.897 142.71 213.195 147.848 208.721 152.323L205.191 155.853Z" fill="#475DA7"/>
<path d="M229.791 139.538L234.796 134.533L210.882 110.619L205.877 115.624L229.791 139.538Z" fill="#475DA7"/>
<path d="M251.658 118.501C258.32 111.838 258.32 103.95 251.807 97.4367L249.056 94.6856L238.979 104.762L242.708 108.491L247.912 103.287L248.244 103.652C251.061 106.734 250.763 110.91 247.498 114.175C243.52 118.153 237.935 117.606 232.748 112.419L232.731 112.402C227.66 107.331 227.113 102.044 231.058 98.0996C233.759 95.3983 237.007 94.8348 240.123 96.3595L240.355 96.4589L245.376 91.4374L245.095 91.2551C239.808 87.5593 232.549 88.1228 226.798 93.8736C219.788 100.884 220.02 109.899 227.677 117.556L227.693 117.573C235.482 125.362 244.515 125.644 251.658 118.501Z" fill="#475DA7"/>
<path d="M266.861 102.468L271.866 97.4632L247.952 73.5487L242.947 78.5537L266.861 102.468Z" fill="#475DA7"/>
<path d="M283.259 86.0711L288.264 81.0661L268.476 61.2781L275.403 54.3507L271.276 50.2241L252.433 69.0674L256.56 73.194L263.471 66.2831L283.259 86.0711Z" fill="#475DA7"/>
<path d="M294.883 74.4469L300.136 69.1933L296.126 61.603L304.528 53.2006L312.118 57.2112L317.389 51.941L285.155 36.346L279.271 42.2294L294.883 74.4469ZM286.812 43.9695L286.911 43.8701L299.623 50.6152L293.54 56.6974L286.812 43.9695Z" fill="#475DA7"/>
<path d="M321.538 47.7912L337.001 32.3288L332.874 28.2021L322.417 38.6596L302.629 18.8716L297.624 23.8766L321.538 47.7912Z" fill="#475DA7"/>
<path fill-rule="evenodd" clip-rule="evenodd" d="M25.7431 212.594L0.41432 187.265L10.253 177.426C13.9734 173.706 18.1355 171.763 22.4364 171.824C26.7323 171.884 30.9862 173.941 34.9023 177.857L34.9355 177.89C38.8584 181.813 40.97 186.112 41.0886 190.451C41.2074 194.8 39.3193 199.018 35.5818 202.755L25.7431 212.594ZM34.8747 202.048C42.0508 194.872 41.8187 186.188 34.2284 178.597L34.1952 178.564C26.6215 170.99 18.1196 170.974 10.9602 178.133L1.82853 187.265L25.7431 211.179L34.8747 202.048ZM12.3744 186.387L26.6049 200.617L29.4278 197.794C31.518 195.704 32.3952 193.568 32.2568 191.436C32.1166 189.274 30.9203 186.912 28.4334 184.425L28.4003 184.392C26.016 182.008 23.6789 180.867 21.5217 180.752C19.3863 180.638 17.2419 181.519 15.1973 183.564L12.3744 186.387ZM52.9026 185.434L27.5738 160.105L44.8317 142.848L50.3725 148.388L39.5339 159.227L43.8539 163.547L54.0793 153.322L59.4047 158.647L49.1793 168.872L53.781 173.474L64.6196 162.635L70.1605 168.176L52.9026 185.434ZM64.6196 164.05L68.7462 168.176L52.9026 184.02L28.9881 160.105L44.8317 144.262L48.9583 148.388L38.1197 159.227L43.8539 164.961L54.0793 154.736L57.9905 158.647L47.7651 168.872L53.781 174.888L64.6196 164.05ZM69.9196 138.166L72.969 136.144C78.9684 132.134 83.2607 131.918 87.0227 135.68L87.0393 135.697C91.63 140.288 90.9339 146.817 84.9014 152.85C79.4096 158.342 73.3764 159.518 68.7445 155.87C68.582 155.742 68.4213 155.608 68.2623 155.468L67.9806 155.22L72.7038 150.496L72.9193 150.646C75.0903 152.187 78.2226 151.375 80.9571 148.64C83.7248 145.873 84.2551 142.923 82.4321 141.1L82.4155 141.083C80.7914 139.459 78.8026 139.824 75.2229 142.177L72.2066 144.199C66.5387 147.977 61.8984 148.11 58.3021 144.514L58.2855 144.497C53.9103 140.122 54.8383 133.426 60.1416 128.123C65.5025 122.762 71.454 122.003 75.8434 125.558C75.9863 125.674 76.1275 125.794 76.267 125.919L76.5984 126.217L71.8752 130.941L71.6597 130.758C69.5384 129.134 66.6713 129.714 64.202 132.183C61.6498 134.769 61.2852 137.487 62.9922 139.194L63.0087 139.21C64.5169 140.718 66.6216 140.37 69.9196 138.166ZM64.9114 132.888C67.1851 130.616 69.4752 130.361 71.0336 131.538L71.9317 132.298L78.0509 126.179L76.936 125.176L76.9339 125.174C74.5139 123.008 71.5796 122.076 68.4946 122.468C65.4329 122.857 62.3141 124.536 59.4345 127.416C56.661 130.19 54.9717 133.386 54.5913 136.538C54.208 139.714 55.1647 142.791 57.5784 145.204L57.595 145.221C59.5671 147.193 61.8836 148.185 64.5016 148.122C67.0788 148.059 69.8405 146.978 72.7614 145.031L72.7635 145.029L75.7722 143.013C75.7735 143.012 75.7748 143.011 75.7761 143.01C77.544 141.848 78.7849 141.273 79.7094 141.126C80.5279 140.996 81.1134 141.195 81.7084 141.79L81.725 141.807C82.3793 142.461 82.6287 143.309 82.4339 144.328C82.2321 145.383 81.5418 146.641 80.25 147.933C77.6406 150.543 75.0628 150.941 73.4982 149.83L72.5869 149.199L66.5208 155.265L67.6007 156.218L67.6018 156.219C70.166 158.475 73.2036 159.334 76.3676 158.826C79.4984 158.323 82.6673 156.498 85.6085 153.557C88.7297 150.436 90.5583 147.1 90.947 143.851C91.3397 140.569 90.246 137.489 87.7464 134.99L87.7299 134.973C85.6911 132.934 83.4196 131.901 80.7979 131.998C78.2354 132.093 75.4779 133.265 72.4148 135.312C72.4143 135.312 72.4138 135.313 72.4132 135.313L69.367 137.333L69.3639 137.335C67.7519 138.412 66.5485 138.952 65.6404 139.092C64.8115 139.22 64.2327 139.02 63.7158 138.503L63.6993 138.487C63.0853 137.873 62.8387 137.094 62.987 136.178C63.1408 135.228 63.7333 134.082 64.9114 132.888ZM100.593 137.744L75.2638 112.415L81.683 105.996L107.012 131.325L100.593 137.744ZM105.598 131.325L100.593 136.33L76.678 112.415L81.683 107.41L105.598 131.325ZM121.554 88.3661L125.012 91.8243C128.412 95.2244 130.191 99.0687 130.171 103.013C130.151 106.955 128.333 110.832 124.863 114.303C121.133 118.033 116.831 119.893 112.379 119.73C107.94 119.568 103.508 117.398 99.4844 113.374L99.4678 113.358C95.5066 109.397 93.3856 105 93.2362 100.601C93.0865 96.1911 94.9234 91.9271 98.5895 88.2611C104.632 82.2181 112.418 81.5224 118.151 85.5199L119.456 86.3645L113.082 92.7394L112.204 92.3634L112.182 92.3524C110.797 91.6746 109.423 91.478 108.117 91.7224C106.807 91.9674 105.495 92.6691 104.263 93.9014C102.481 95.6828 101.766 97.6972 102.005 99.8102C102.249 101.962 103.501 104.353 105.937 106.79L105.953 106.806C108.441 109.294 110.937 110.58 113.187 110.835C115.404 111.086 117.499 110.353 119.289 108.563C120.782 107.069 121.542 105.426 121.652 103.869C121.751 102.482 121.341 101.092 120.362 99.8439L115.206 105L110.063 99.8566L121.554 88.3661ZM120.41 98.3816L120.742 98.7462C120.858 98.8731 120.968 99.0018 121.074 99.1323C123.53 102.171 123.126 106.139 119.996 109.27C116.019 113.247 110.434 112.7 105.246 107.513L105.23 107.497C100.158 102.425 99.6115 97.1386 103.556 93.1943C106.257 90.4929 109.505 89.9295 112.621 91.4542L112.853 91.5536L117.875 86.532L117.593 86.3497C117.405 86.2182 117.214 86.0921 117.021 85.9714C111.791 82.7007 104.843 83.4221 99.2966 88.9682C92.2863 95.9785 92.5183 104.994 100.175 112.651L100.192 112.667C107.981 120.457 117.013 120.738 124.156 113.595C130.818 106.933 130.818 99.0445 124.305 92.5314L121.554 89.7803L111.478 99.8566L115.206 103.585L120.41 98.3816ZM141.057 97.28L115.728 71.9513L121.18 66.4993L145.147 70.8104L131.008 56.6711L137.411 50.2685L162.74 75.5973L157.32 81.017L133.212 76.6296L147.459 90.8774L141.057 97.28ZM130.384 75.2161L130.483 75.1167L156.983 79.9394L161.325 75.5973L137.411 51.6827L132.422 56.6711L147.968 72.2164L147.868 72.3159L121.517 67.576L117.142 71.9513L141.057 95.8658L146.045 90.8774L130.384 75.2161ZM168.713 69.6233L143.385 44.2945L160.643 27.0367L166.183 32.5776L155.345 43.4162L159.665 47.7362L169.89 37.5107L175.216 42.8361L164.99 53.0616L169.592 57.6633L180.43 46.8247L185.971 52.3655L168.713 69.6233ZM180.43 48.2389L184.557 52.3655L168.713 68.2091L144.799 44.2945L160.643 28.4509L164.769 32.5776L153.931 43.4162L159.665 49.1504L169.89 38.925L173.801 42.8361L163.576 53.0616L169.592 59.0775L180.43 48.2389ZM191.564 46.7727L166.235 21.4439L176.82 10.8594C179.624 8.0554 182.694 6.47529 185.787 6.3047C188.901 6.13304 191.876 7.39815 194.442 9.96451L194.475 9.99765C197.593 13.1151 198.764 17.3399 197.562 21.1927L212.593 25.7436L205.313 33.0234L192.188 28.8139L189.316 31.6859L197.983 40.3535L191.564 46.7727ZM191.912 27.6753L205.038 31.8848L210.706 26.2169L196.254 21.8417C196.389 21.5326 196.505 21.2193 196.604 20.9028C197.688 17.4359 196.654 13.5902 193.768 10.7048L193.735 10.6716C188.929 5.8655 182.896 6.19696 177.527 11.5665L167.649 21.4439L191.564 45.3585L196.569 40.3535L187.901 31.6859L191.912 27.6753ZM177.98 20.3501L184.106 26.4766L187.725 22.8582C188.837 21.746 189.326 20.6295 189.355 19.6178C189.383 18.6159 188.964 17.5563 187.94 16.5329L187.907 16.4997C186.933 15.5256 185.864 15.1177 184.826 15.1574C183.777 15.1975 182.629 15.701 181.532 16.798L177.98 20.3501ZM26.6049 202.031L30.1349 198.501C34.6096 194.027 34.3113 188.889 29.1405 183.718L29.1074 183.685C24.119 178.697 18.882 178.465 14.4902 182.857L10.9602 186.387L26.6049 202.031ZM184.106 27.8908L188.432 23.5653C190.918 21.0793 191.001 18.1791 188.647 15.8258L188.614 15.7926C186.327 13.5056 183.294 13.6216 180.825 16.0909L176.566 20.3501L184.106 27.8908Z" fill="#475DA7"/>
</svg>
